<svg width="64" height="64" viewBox="0 0 64 64" fill="none" xmlns="http://www.w3.org/2000/svg">
<path d="M25.2646 22.5632C25.2646 26.196 28.2097 29.1406 31.8424 29.1406C35.4752 29.1406 38.4198 26.196 38.4198 22.5632" stroke="white" stroke-width="1.5" stroke-miterlimit="10" stroke-linecap="round" stroke-linejoin="round"/>
<path d="M43.5774 33.3105C43.0566 32.6112 42.3786 32.0237 41.5782 31.6043L35.1706 28.2374V29.195C35.1706 30.2924 34.5584 31.2984 33.5831 31.8023L31.8421 32.7017L30.1007 31.8023C29.1253 31.2984 28.5128 30.2924 28.5128 29.195V28.2374L22.1051 31.6043C21.3746 31.9873 20.7463 32.5101 20.2461 33.1303" stroke="white" stroke-width="1.5" stroke-miterlimit="10" stroke-linecap="round" stroke-linejoin="round"/>
<path d="M38.4196 22.5635C38.4196 22.5635 36.7748 21.2746 36.7748 17.3687C36.7748 17.3687 35.4394 16.3348 31.8422 16.3348C28.2447 16.3348 26.9093 17.3687 26.9093 17.3687C26.9093 21.2746 25.2645 22.5635 25.2645 22.5635C25.2645 22.5635 22.3865 15.8091 25.2645 15.5113C26.0479 13.0604 26.9331 10.5715 31.8422 11.1841C36.7509 11.797 36.9614 11.9501 37.7655 10.5715C38.5699 9.19295 41.7926 12.9101 40.1336 17.2346C39.0612 20.0301 38.8321 20.2677 38.4196 22.5635Z" stroke="white" stroke-width="1.5" stroke-miterlimit="10" stroke-linecap="round" stroke-linejoin="round"/>
<path d="M25.8358 25.2458C25.614 25.2971 25.3824 25.3242 25.1453 25.3242C23.4564 25.3242 22.0879 23.9557 22.0879 22.2668C22.0879 20.8975 22.9885 19.7384 24.2297 19.3493" stroke="white" stroke-width="1.5" stroke-miterlimit="10" stroke-linecap="round" stroke-linejoin="round"/>
<path d="M37.8486 25.2458C38.0705 25.2971 38.302 25.3242 38.5391 25.3242C40.228 25.3242 41.5965 23.9557 41.5965 22.2668C41.5965 20.8975 40.6959 19.7384 39.4547 19.3493" stroke="white" stroke-width="1.5" stroke-miterlimit="10" stroke-linecap="round" stroke-linejoin="round"/>
<path d="M38.9428 25.3236C38.9428 25.3236 38.7561 26.7305 31.8418 26.7305" stroke="white" stroke-width="1.5" stroke-miterlimit="10" stroke-linecap="round" stroke-linejoin="round"/>
<path d="M45.8869 50.3223H17.7988V35.3117C17.7988 34.2071 18.6942 33.3117 19.7988 33.3117H43.8869C44.9916 33.3117 45.8869 34.2071 45.8869 35.3117V50.3223Z" stroke="white" stroke-width="1.5" stroke-miterlimit="10" stroke-linecap="round" stroke-linejoin="round"/>
<path d="M33.8376 41.8177C33.8376 42.9196 32.9442 43.8125 31.8428 43.8125C30.7406 43.8125 29.8477 42.9196 29.8477 41.8177C29.8477 40.7159 30.7406 39.8226 31.8428 39.8226C32.9442 39.8226 33.8376 40.7159 33.8376 41.8177Z" stroke="white" stroke-width="1.5" stroke-miterlimit="10" stroke-linecap="round" stroke-linejoin="round"/>
<path d="M47.0366 50.3224H16.6475V53H47.0366V50.3224Z" stroke="white" stroke-width="1.5" stroke-miterlimit="10" stroke-linecap="round" stroke-linejoin="round"/>
</svg>
