<svg width="64" height="64" viewBox="0 0 64 64" fill="none" xmlns="http://www.w3.org/2000/svg">
<path d="M50.7751 30.6213C48.4319 30.6213 46.5332 32.4998 46.5332 34.8173V36.7156C46.5332 39.0326 48.4319 40.9111 50.7751 40.9111C53.1182 40.9111 55.0174 39.0326 55.0174 36.7156V34.8173C55.0174 32.4998 53.1182 30.6213 50.7751 30.6213Z" stroke="white" stroke-width="1.5" stroke-miterlimit="10" stroke-linecap="round" stroke-linejoin="round"/>
<path d="M52.7391 41.8921L56.591 43.9886C57.9796 44.7446 58.8427 46.1882 58.8427 47.7562V52H50.7751H42.708V47.7562C42.708 46.1882 43.5711 44.7446 44.9597 43.9886L48.8111 41.8921" stroke="white" stroke-width="1.5" stroke-miterlimit="10" stroke-linecap="round" stroke-linejoin="round"/>
<path d="M52.7385 40.4334V41.8927L50.7745 43.0273L48.8105 41.8927V40.4334" stroke="white" stroke-width="1.5" stroke-miterlimit="10" stroke-linecap="round" stroke-linejoin="round"/>
<path d="M31.9997 30.6213C29.6566 30.6213 27.7578 32.4998 27.7578 34.8173V36.7156C27.7578 39.0326 29.6566 40.9111 31.9997 40.9111C34.3428 40.9111 36.242 39.0326 36.242 36.7156V34.8173C36.242 32.4998 34.3428 30.6213 31.9997 30.6213Z" stroke="white" stroke-width="1.5" stroke-miterlimit="10" stroke-linecap="round" stroke-linejoin="round"/>
<path d="M33.9627 41.8921L37.8146 43.9886C39.2032 44.7446 40.0658 46.1882 40.0658 47.7562V52H31.9987H23.9316V47.7562C23.9316 46.1882 24.7947 44.7446 26.1833 43.9886L30.0347 41.8921" stroke="white" stroke-width="1.5" stroke-miterlimit="10" stroke-linecap="round" stroke-linejoin="round"/>
<path d="M33.9641 40.4334V41.8927L32.0001 43.0273L30.0361 41.8927V40.4334" stroke="white" stroke-width="1.5" stroke-miterlimit="10" stroke-linecap="round" stroke-linejoin="round"/>
<path d="M13.2243 30.6213C10.8812 30.6213 8.98242 32.4998 8.98242 34.8173V36.7156C8.98242 39.0326 10.8812 40.9111 13.2243 40.9111C15.5674 40.9111 17.4661 39.0326 17.4661 36.7156V34.8173C17.4661 32.4998 15.5674 30.6213 13.2243 30.6213Z" stroke="white" stroke-width="1.5" stroke-miterlimit="10" stroke-linecap="round" stroke-linejoin="round"/>
<path d="M15.1893 41.8921L19.0412 43.9886C20.4298 44.7446 21.2924 46.1882 21.2924 47.7562V52H13.2253H5.1582V47.7562C5.1582 46.1882 6.02075 44.7446 7.40987 43.9886L11.2613 41.8921" stroke="white" stroke-width="1.5" stroke-miterlimit="10" stroke-linecap="round" stroke-linejoin="round"/>
<path d="M15.1897 40.4334V41.8927L13.2257 43.0273L11.2617 41.8927V40.4334" stroke="white" stroke-width="1.5" stroke-miterlimit="10" stroke-linecap="round" stroke-linejoin="round"/>
<path d="M23.8611 20.648C23.8611 22.5123 22.3328 24.0244 20.4479 24.0244C18.563 24.0244 17.0342 22.5123 17.0342 20.648C17.0342 18.7837 18.563 17.2721 20.4479 17.2721C22.3328 17.2721 23.8611 18.7837 23.8611 20.648Z" stroke="white" stroke-width="1.5" stroke-miterlimit="10" stroke-linecap="round" stroke-linejoin="round"/>
<path d="M29.7271 31.2655L33.522 27.3276C34.0342 26.7971 34.0147 25.9562 33.4779 25.4491C32.941 24.9425 32.0913 24.9618 31.5786 25.4928L28.3673 28.8443L22.4877 26.0014C22.4681 25.9922 22.4471 25.9882 22.4276 25.98C21.828 25.6924 21.1576 25.5263 20.4466 25.5263C17.933 25.5263 15.8955 27.5415 15.8955 30.0277V31.5576" stroke="white" stroke-width="1.5" stroke-miterlimit="10" stroke-linecap="round" stroke-linejoin="round"/>
<path d="M17.4668 34.3125H24.9981V30.1688L28.0825 31.6571C28.2679 31.7455 28.4673 31.7882 28.664 31.7882C28.8377 31.7882 29.0098 31.7552 29.1711 31.6906" stroke="white" stroke-width="1.5" stroke-miterlimit="10" stroke-linecap="round" stroke-linejoin="round"/>
<path d="M33.4795 25.4492L36.6559 19.4479" stroke="white" stroke-width="1.5" stroke-miterlimit="10" stroke-linecap="round" stroke-linejoin="round"/>
<path d="M31.9121 17.2725H48.1038" stroke="white" stroke-width="1.5" stroke-miterlimit="10" stroke-linecap="round" stroke-linejoin="round"/>
<path d="M31.9121 21.9951H48.1038" stroke="white" stroke-width="1.5" stroke-miterlimit="10" stroke-linecap="round" stroke-linejoin="round"/>
<path d="M33.8516 26.7188H48.1034" stroke="white" stroke-width="1.5" stroke-miterlimit="10" stroke-linecap="round" stroke-linejoin="round"/>
<path d="M34.5654 31.4414H48.1042" stroke="white" stroke-width="1.5" stroke-miterlimit="10" stroke-linecap="round" stroke-linejoin="round"/>
<path d="M27.7573 34.3125H17.4668" stroke="white" stroke-width="1.5" stroke-miterlimit="10" stroke-linecap="round" stroke-linejoin="round"/>
<path d="M46.5318 34.3125H36.21" stroke="white" stroke-width="1.5" stroke-miterlimit="10" stroke-linecap="round" stroke-linejoin="round"/>
<path d="M12.3545 30.71V11.9997H51.646V30.71" stroke="white" stroke-width="1.5" stroke-miterlimit="10" stroke-linecap="round" stroke-linejoin="round"/>
</svg>
