<svg width="28" height="20" viewBox="0 0 28 20" fill="none" xmlns="http://www.w3.org/2000/svg">
<path d="M8.23175 0.836405C5.9545 0.836405 3.91681 1.21223 2.5459 1.80482V17.3174C3.91681 16.7253 5.9545 16.3495 8.23175 16.3495C10.509 16.3495 12.5467 16.7253 13.9176 17.3174V1.80482C12.5467 1.21223 10.509 0.836405 8.23175 0.836405Z" stroke="#0A3180" stroke-miterlimit="10" stroke-linecap="round" stroke-linejoin="round"/>
<path d="M12.3277 4.00879C11.3399 3.63539 9.87153 3.39874 8.23051 3.39874C6.5895 3.39874 5.1216 3.63539 4.13379 4.00879" stroke="#0A3180" stroke-miterlimit="10" stroke-linecap="round" stroke-linejoin="round"/>
<path d="M12.3277 7.17773C11.3399 6.80433 9.87153 6.56769 8.23051 6.56769C6.5895 6.56769 5.1216 6.80433 4.13379 7.17773" stroke="#0A3180" stroke-miterlimit="10" stroke-linecap="round" stroke-linejoin="round"/>
<path d="M12.3277 10.3457C11.3399 9.9723 9.87153 9.73566 8.23051 9.73566C6.5895 9.73566 5.1216 9.9723 4.13379 10.3457" stroke="#0A3180" stroke-miterlimit="10" stroke-linecap="round" stroke-linejoin="round"/>
<path d="M12.3277 13.5137C11.3399 13.1403 9.87153 12.9036 8.23051 12.9036C6.5895 12.9036 5.1216 13.1403 4.13379 13.5137" stroke="#0A3180" stroke-miterlimit="10" stroke-linecap="round" stroke-linejoin="round"/>
<path d="M19.6019 0.836405C21.8791 0.836405 23.9168 1.21223 25.2877 1.80482V17.3174C23.9168 16.7253 21.8791 16.3495 19.6019 16.3495C17.3246 16.3495 15.2869 16.7253 13.916 17.3174V1.80482C15.2869 1.21223 17.3246 0.836405 19.6019 0.836405Z" stroke="#0A3180" stroke-miterlimit="10" stroke-linecap="round" stroke-linejoin="round"/>
<path d="M15.5059 4.00879C16.4937 3.63539 17.9621 3.39874 19.6031 3.39874C21.2441 3.39874 22.7125 3.63539 23.6998 4.00879" stroke="#0A3180" stroke-miterlimit="10" stroke-linecap="round" stroke-linejoin="round"/>
<path d="M15.5059 7.17773C16.4937 6.80433 17.9621 6.56769 19.6031 6.56769C21.2441 6.56769 22.7125 6.80433 23.6998 7.17773" stroke="#0A3180" stroke-miterlimit="10" stroke-linecap="round" stroke-linejoin="round"/>
<path d="M15.5059 10.3457C16.4937 9.9723 17.9621 9.73566 19.6031 9.73566C21.2441 9.73566 22.7125 9.9723 23.6998 10.3457" stroke="#0A3180" stroke-miterlimit="10" stroke-linecap="round" stroke-linejoin="round"/>
<path d="M15.5059 13.5137C16.4937 13.1403 17.9621 12.9036 19.6031 12.9036C21.2441 12.9036 22.7125 13.1403 23.6998 13.5137" stroke="#0A3180" stroke-miterlimit="10" stroke-linecap="round" stroke-linejoin="round"/>
<path d="M25.289 2.94916H27.1759V19H13.9173H0.65918V2.94916H2.54606" stroke="#0A3180" stroke-miterlimit="10" stroke-linecap="round" stroke-linejoin="round"/>
</svg>
