<svg width="37" height="25" viewBox="0 0 37 25" fill="none" xmlns="http://www.w3.org/2000/svg">
<path d="M9.84581 4.74589C9.84581 6.81457 8.18148 8.49121 6.12799 8.49121C4.07507 8.49121 2.41016 6.81457 2.41016 4.74589C2.41016 2.67721 4.07507 1.00057 6.12799 1.00057C8.18148 1.00057 9.84581 2.67721 9.84581 4.74589Z" stroke="#0A3180" stroke-miterlimit="10" stroke-linecap="round" stroke-linejoin="round"/>
<path d="M20.3228 10.0712C19.7376 9.50882 18.8124 9.53063 18.2541 10.1196L14.7557 13.8378L8.3518 10.6838C8.33014 10.6732 8.3079 10.669 8.28625 10.6596C7.63316 10.3407 6.90341 10.1567 6.12859 10.1567C3.39098 10.1567 1.17188 12.3928 1.17188 15.1507V24.3857H11.0859V15.3069L14.4456 16.9582C14.6481 17.0566 14.8646 17.1038 15.0794 17.1038C15.4703 17.1038 15.8553 16.9464 16.138 16.6481L20.3708 12.1552C20.9285 11.5663 20.9074 10.6337 20.3228 10.0712Z" stroke="#0A3180" stroke-miterlimit="10" stroke-linecap="round" stroke-linejoin="round"/>
<path d="M20.3213 10.0713L23.781 3.41367" stroke="#0A3180" stroke-miterlimit="10" stroke-linecap="round" stroke-linejoin="round"/>
<path d="M18.6143 1H36.2501" stroke="#0A3180" stroke-miterlimit="10" stroke-linecap="round" stroke-linejoin="round"/>
<path d="M18.6143 6.23926H36.2501" stroke="#0A3180" stroke-miterlimit="10" stroke-linecap="round" stroke-linejoin="round"/>
<path d="M20.7266 11.4805H36.2498" stroke="#0A3180" stroke-miterlimit="10" stroke-linecap="round" stroke-linejoin="round"/>
<path d="M18.6143 16.7197H36.2501" stroke="#0A3180" stroke-miterlimit="10" stroke-linecap="round" stroke-linejoin="round"/>
</svg>
