<svg width="26" height="30" viewBox="0 0 26 30" fill="none" xmlns="http://www.w3.org/2000/svg">
<path d="M18.4353 9.12012L24.8861 6.20843L12.9435 0.818071L1.00098 6.20843L7.45142 9.12012" stroke="#0A3180" stroke-miterlimit="10" stroke-linecap="round" stroke-linejoin="round"/>
<path d="M18.381 6.98479C16.7624 3.64344 9.12403 3.64344 7.50586 6.98479V13.5659C7.50586 16.5179 9.94031 18.9111 12.9432 18.9111C15.9465 18.9111 18.381 16.5179 18.381 13.5659V6.98479Z" stroke="#0A3180" stroke-miterlimit="10" stroke-linecap="round" stroke-linejoin="round"/>
<path d="M18.381 12.0547C16.7624 8.71335 9.12403 8.71335 7.50586 12.0547" stroke="#0A3180" stroke-miterlimit="10" stroke-linecap="round" stroke-linejoin="round"/>
<path d="M21.0527 4.47868V14.6396" stroke="#0A3180" stroke-miterlimit="10" stroke-linecap="round" stroke-linejoin="round"/>
<path d="M21.0546 14.6395C20.4307 14.6395 19.9248 15.1367 19.9248 15.7501V17.1094H22.184V15.7501C22.184 15.1367 21.6785 14.6395 21.0546 14.6395Z" stroke="#0A3180" stroke-miterlimit="10" stroke-linecap="round" stroke-linejoin="round"/>
<path d="M15.6926 18.1772L20.99 20.9136C22.601 21.7429 23.6103 23.3828 23.6103 25.1704V29.1816H12.9409H2.27148V25.1704C2.27148 23.3828 3.28079 21.7429 4.89177 20.9136L10.1888 18.1772" stroke="#0A3180" stroke-miterlimit="10" stroke-linecap="round" stroke-linejoin="round"/>
<path d="M22.0438 21.6461C20.8261 25.4491 17.2102 28.207 12.9396 28.207C8.6686 28.207 5.05304 25.4491 3.83496 21.6461" stroke="#0A3180" stroke-miterlimit="10" stroke-linecap="round" stroke-linejoin="round"/>
<path d="M16.9563 18.8362L12.942 23.1436L8.92773 18.8362" stroke="#0A3180" stroke-miterlimit="10" stroke-linecap="round" stroke-linejoin="round"/>
</svg>
