<svg width="48" height="48" viewBox="0 0 48 48" fill="none" xmlns="http://www.w3.org/2000/svg">
<circle cx="24" cy="24" r="23.5" stroke="#83879B"/>
<path d="M17.8389 22.1357C15.6374 22.6593 14 24.6385 14 27.0002C14 29.7616 16.2386 32.0002 19 32.0002C19.4737 32.0002 19.932 31.9344 20.3663 31.8113" stroke="#83879B" stroke-linecap="round" stroke-linejoin="round"/>
<path d="M30.0274 22.1357C32.2289 22.6593 33.8662 24.6385 33.8662 27.0002C33.8662 29.7616 31.6277 32.0002 28.8662 32.0002C28.3925 32.0002 27.9342 31.9344 27.5 31.8113" stroke="#83879B" stroke-linecap="round" stroke-linejoin="round"/>
<path d="M30 22C30 18.6863 27.3137 16 24 16C20.6863 16 18 18.6863 18 22" stroke="#83879B" stroke-linecap="round" stroke-linejoin="round"/>
<path d="M20.5327 27.0595L24 30.5382L27.5659 27" stroke="#83879B" stroke-linecap="round" stroke-linejoin="round"/>
<path d="M24 22V28.7691" stroke="#83879B" stroke-linecap="round" stroke-linejoin="round"/>
</svg>
