<svg width="78" height="24" viewBox="0 0 78 24" fill="none" xmlns="http://www.w3.org/2000/svg">
<path d="M13.1637 7.8797V0H10.9446V7.8797L6.98944 1.05263L5.07226 2.16541L9.02741 8.99248L2.17383 5.05263L1.0718 6.9624L7.9103 10.9023H0V13.1128H7.9103L1.0718 17.0526L2.17383 18.9624L9.02741 15.0226L5.07226 21.8496L6.98944 22.9474L10.9446 16.1203V24H13.1637V16.1203" fill="white"/>
<path d="M10.9446 7.8797V0H13.1637V7.8797L17.1189 1.06767L19.0361 2.16541L15.0809 8.99248L21.9345 5.05263L23.0365 6.9624L16.1829 10.9023H24.0932V13.1128H16.1829L23.0365 17.0526L21.9345 18.9624L15.0809 15.0226L19.0361 21.8496L17.1189 22.9474L13.1637 16.1203V24H10.9446V16.1203" fill="white"/>
<path d="M32.0859 6.33066V7.67487H35.6393H38.6995C39.0053 7.67487 39.2932 7.81872 39.4769 8.0632C39.7362 8.40442 39.8443 8.83154 39.8574 9.2599C39.8833 10.1101 39.9256 11.6948 39.9407 13.4251L39.9781 18.0925L41.3471 18.1149L42.7086 18.1299V15.0531C42.7011 11.4088 42.6039 8.65316 42.4543 7.96612C42.3121 7.30895 42.1027 6.91315 41.6314 6.42027C40.6681 5.37718 39.1294 5.13754 37.7111 5.07018C36.9081 5.03203 35.9245 4.99957 34.8389 4.99391L32.0859 4.98644V6.33066Z" fill="white"/>
<path d="M46.9072 9.437C46.9072 11.9014 46.9072 14.7588 46.9072 14.7588V18.1381C46.9072 18.1381 47.8124 18.1232 48.5006 18.1381L49.6751 18.1445L53.2135 18.1072C57.0661 18.0699 57.4252 18.0325 58.1209 17.6367C58.6146 17.3455 59.3402 16.6211 59.5796 16.188C59.9387 15.5382 59.9985 14.9632 60.0509 12.1553C60.1033 8.83957 60.0359 8.01064 59.6544 7.23398C59.1158 6.14367 57.9937 5.28487 56.9165 5.12804C56.6546 5.0907 54.2982 5.03843 51.6799 5.01603L46.9072 4.96375V9.437ZM55.7121 7.7418C55.7121 7.7418 56.516 7.7418 56.929 8.06917C57.4105 8.45076 57.4177 9.14097 57.4177 9.75528V11.5579C57.4177 14.5002 57.4027 14.657 57.0212 15.008C56.6098 15.3889 56.535 15.3964 52.9517 15.4262L49.6003 15.4486V11.6102C49.6003 9.50421 49.6003 7.7418 49.6003 7.7418C49.6676 7.66712 55.7121 7.7418 55.7121 7.7418Z" fill="white"/>
<path d="M68.2204 5.06112C67.0833 5.12086 66.3951 5.25528 65.8341 5.5316C65.3628 5.7631 64.7119 6.42027 64.3454 7.0401C63.7918 7.97359 63.922 8.07067 63.9145 12.0436L63.9146 18.1299H65.1201H66.3502H71.6242H76.8981V16.7857V15.4415H71.7064H66.5223L66.4849 12.6186C66.4699 11.0728 66.4774 9.56424 66.4998 9.273C66.6046 8.18269 66.9562 7.87651 68.2578 7.74955C68.6693 7.71221 70.7788 7.67487 72.9557 7.67487H76.8981V6.33066V4.98644L73.1053 5.00138C71.0107 5.00138 68.8189 5.03125 68.2204 5.06112Z" fill="white"/>
<path d="M29.762 4.98748H29.543V12.9472V18.1299H29.9394C30.1639 18.1299 30.7549 18.1075 31.2486 18.0776L32.1612 18.0328V12.9397V4.98748H31.8719H29.762Z" fill="white"/>
</svg>
