<svg width="286" height="301" viewBox="0 0 286 301" fill="none" xmlns="http://www.w3.org/2000/svg">
<path d="M285.996 187.407L144.122 45.4395C139.982 45.816 135.843 46.5691 131.703 47.6989L284.114 200.211C284.867 195.692 285.62 191.549 285.996 187.407Z" fill="#E6E6E6" fill-opacity="0.1"/>
<path d="M249.478 81.9669C237.812 70.2931 224.264 61.2553 209.211 54.8535L276.949 122.637C270.175 107.197 261.144 93.6407 249.478 81.9669Z" fill="#E6E6E6" fill-opacity="0.1"/>
<path d="M68.0966 263.097C79.7627 274.771 93.3103 283.808 108.363 290.21L40.625 222.427C47.3988 237.866 56.4306 251.423 68.0966 263.097Z" fill="#E6E6E6" fill-opacity="0.1"/>
<path d="M234.417 275.907L55.2868 96.6582C53.4052 99.2942 51.1472 102.307 49.2656 105.319L225.385 281.555C228.772 280.049 231.783 278.166 234.417 275.907Z" fill="#E6E6E6" fill-opacity="0.1"/>
<path d="M185.888 297.744L33.4767 145.232C32.724 149.374 31.9714 153.516 31.2188 157.659L173.469 300.003C177.609 299.627 181.748 298.873 185.888 297.744Z" fill="#E6E6E6" fill-opacity="0.1"/>
<path d="M267.916 239.371L91.7961 63.1348C88.7855 65.0176 85.7749 66.9005 83.1406 69.1599L262.271 248.408C264.152 245.396 266.034 242.383 267.916 239.371Z" fill="#E6E6E6" fill-opacity="0.1"/>
<path d="M254.777 142.966L112.903 0.998535C108.764 1.37511 104.624 2.12822 100.484 3.25793L252.519 155.77C253.272 151.627 254.024 147.485 254.777 142.966Z" fill="#EDF3F8" fill-opacity="0.5"/>
<path d="M217.907 37.9088C206.241 26.235 192.694 17.1972 177.641 10.7954L245.379 78.5789C238.981 63.1393 229.573 49.5826 217.907 37.9088Z" fill="#EDF3F8" fill-opacity="0.5"/>
<path d="M36.8779 219.038C48.5439 230.712 62.0916 239.75 77.1445 246.152L9.40625 178.368C15.8038 193.808 25.2119 207.364 36.8779 219.038Z" fill="#EDF3F8" fill-opacity="0.5"/>
<path d="M202.847 231.832L23.7165 52.584C21.8349 55.22 19.5769 58.2326 17.6953 61.2452L193.815 237.481C197.202 235.975 200.212 234.092 202.847 231.832Z" fill="#EDF3F8" fill-opacity="0.5"/>
<path d="M154.669 253.685L2.25794 101.173C1.5053 105.316 0.752648 109.458 0 113.6L141.874 255.568C146.014 255.191 150.529 254.815 154.669 253.685Z" fill="#EDF3F8" fill-opacity="0.5"/>
<path d="M236.697 195.312L60.5773 19.0767C57.5667 20.9595 54.5561 22.8423 51.9219 25.1018L231.052 204.35C232.934 201.338 234.815 198.325 236.697 195.312Z" fill="#EDF3F8" fill-opacity="0.5"/>
</svg>
