<svg width="16" height="16" viewBox="0 0 16 16" fill="none" xmlns="http://www.w3.org/2000/svg">
<g clip-path="url(#clip0_1374_23498)">
<path d="M8.00264 5.12354C6.41457 5.12354 5.12891 6.4106 5.12891 7.99727C5.12891 9.58534 6.41597 10.871 8.00264 10.871C9.59071 10.871 10.8764 9.58394 10.8764 7.99727C10.8764 6.4092 9.58931 5.12354 8.00264 5.12354ZM8.00264 9.86254C6.97177 9.86254 6.13737 9.02767 6.13737 7.99727C6.13737 6.96687 6.97224 6.132 8.00264 6.132C9.03304 6.132 9.86791 6.96687 9.86791 7.99727C9.86837 9.02767 9.03351 9.86254 8.00264 9.86254Z" fill="#0A3180"/>
<path d="M10.3096 2.43655C9.27916 2.38848 6.72696 2.39081 5.69563 2.43655C4.78936 2.47901 3.98996 2.69788 3.3455 3.34235C2.26843 4.41941 2.4061 5.87075 2.4061 7.99922C2.4061 10.1776 2.28476 11.5953 3.3455 12.6561C4.42676 13.7369 5.8991 13.5955 8.00236 13.5955C10.1602 13.5955 10.905 13.5969 11.668 13.3015C12.7054 12.8987 13.4885 11.9715 13.565 10.3059C13.6136 9.27508 13.6108 6.72335 13.565 5.69201C13.4726 3.72595 12.4175 2.53361 10.3096 2.43655ZM11.9406 11.9435C11.2345 12.6495 10.255 12.5865 7.98883 12.5865C5.6555 12.5865 4.71983 12.6211 4.0371 11.9365C3.25076 11.1539 3.3931 9.89715 3.3931 7.99175C3.3931 5.41341 3.1285 3.55655 5.71616 3.42401C6.3107 3.40301 6.4857 3.39601 7.9823 3.39601L8.0033 3.41001C10.4902 3.41001 12.4413 3.14961 12.5584 5.73681C12.585 6.32715 12.5911 6.50448 12.5911 7.99875C12.5906 10.305 12.6345 11.2463 11.9406 11.9435Z" fill="#0A3180"/>
<path d="M10.9879 5.68047C11.3588 5.68047 11.6595 5.37981 11.6595 5.00893C11.6595 4.63806 11.3588 4.3374 10.9879 4.3374C10.6171 4.3374 10.3164 4.63806 10.3164 5.00893C10.3164 5.37981 10.6171 5.68047 10.9879 5.68047Z" fill="#0A3180"/>
</g>
<defs>
<clipPath id="clip0_1374_23498">
<rect width="11.2" height="11.2" fill="white" transform="translate(2.40039 2.3999)"/>
</clipPath>
</defs>
</svg>
