<svg width="16" height="16" viewBox="0 0 16 16" fill="none" xmlns="http://www.w3.org/2000/svg">
<path d="M14.4006 3.72504C13.9295 3.94991 13.424 4.10241 12.8929 4.1705C13.4352 3.82068 13.8503 3.26581 14.047 2.60668C13.5383 2.93064 12.9768 3.16587 12.3785 3.29339C11.8994 2.74283 11.218 2.3999 10.4621 2.3999C9.01196 2.3999 7.83618 3.66646 7.83618 5.22769C7.83618 5.44911 7.85938 5.66537 7.90418 5.87218C5.72219 5.75412 3.78736 4.62801 2.4924 2.91685C2.26604 3.33388 2.13727 3.8198 2.13727 4.3385C2.13727 5.31988 2.60118 6.18579 3.30506 6.6924C2.87473 6.6769 2.47 6.54938 2.11568 6.33742V6.37274C2.11568 7.74269 3.02112 8.88603 4.22168 9.14625C4.00172 9.21001 3.76977 9.24534 3.52981 9.24534C3.36025 9.24534 3.19628 9.22725 3.03551 9.19278C3.36983 10.3172 4.33927 11.1348 5.48786 11.1572C4.58962 11.9155 3.45703 12.3661 2.22687 12.3661C2.01491 12.3661 1.80614 12.3523 1.60059 12.3273C2.76277 13.1312 4.14252 13.5999 5.62544 13.5999C10.4557 13.5999 13.096 9.29015 13.096 5.55252L13.0872 5.18635C13.6031 4.78998 14.0494 4.29198 14.4006 3.72504Z" fill="#0A3180"/>
</svg>
