<svg width="16" height="16" viewBox="0 0 16 16" fill="none" xmlns="http://www.w3.org/2000/svg">
<path d="M10.2189 3.20219L9.06755 3.2002C7.77411 3.2002 6.93822 4.12751 6.93822 5.56277V6.65207H5.78064C5.68061 6.65207 5.59961 6.73976 5.59961 6.84792V8.4262C5.59961 8.53436 5.6807 8.62195 5.78064 8.62195H6.93822V12.6044C6.93822 12.7126 7.01923 12.8002 7.11925 12.8002H8.62957C8.7296 12.8002 8.8106 12.7125 8.8106 12.6044V8.62195H10.1641C10.2641 8.62195 10.3451 8.53436 10.3451 8.4262L10.3457 6.84792C10.3457 6.79599 10.3266 6.74625 10.2927 6.7095C10.2588 6.67275 10.2126 6.65207 10.1645 6.65207H8.8106V5.72866C8.8106 5.28482 8.90841 5.05951 9.4431 5.05951L10.2187 5.05921C10.3186 5.05921 10.3996 4.97153 10.3996 4.86346V3.39794C10.3996 3.28998 10.3187 3.20239 10.2189 3.20219Z" fill="#0A3180"/>
</svg>
